<svg id="visual" viewBox="0 0 960 540" width="960" height="540" xmlns="http://www.w3.org/2000/svg" xmlns:xlink="http://www.w3.org/1999/xlink" version="1.1"><rect x="0" y="0" width="960" height="540" fill="#191825"></rect><path d="M0 186L120 186L120 213L240 213L240 256L360 256L360 247L480 247L480 280L600 280L600 212L720 212L720 269L840 269L840 220L960 220L960 239L960 541L960 541L840 541L840 541L720 541L720 541L600 541L600 541L480 541L480 541L360 541L360 541L240 541L240 541L120 541L120 541L0 541Z" fill="#865dff"></path><path d="M0 343L120 343L120 323L240 323L240 345L360 345L360 382L480 382L480 309L600 309L600 275L720 275L720 301L840 301L840 384L960 384L960 340L960 541L960 541L840 541L840 541L720 541L720 541L600 541L600 541L480 541L480 541L360 541L360 541L240 541L240 541L120 541L120 541L0 541Z" fill="#bb6eff"></path><path d="M0 378L120 378L120 447L240 447L240 434L360 434L360 452L480 452L480 377L600 377L600 438L720 438L720 483L840 483L840 418L960 418L960 453L960 541L960 541L840 541L840 541L720 541L720 541L600 541L600 541L480 541L480 541L360 541L360 541L240 541L240 541L120 541L120 541L0 541Z" fill="#e384ff"></path></svg>